<?xml version="1.0" encoding="iso-8859-1"?>
<!-- Generator: Adobe Illustrator 19.0.0, SVG Export Plug-In . SVG Version: 6.00 Build 0)  -->
<svg xmlns="http://www.w3.org/2000/svg" xmlns:xlink="http://www.w3.org/1999/xlink" version="1.1" id="Capa_1" x="0px" y="0px" viewBox="0 0 489.95 489.95" style="enable-background:new 0 0 489.95 489.95;" xml:space="preserve" width="512px" height="512px">
<g>
	<g>
		<g>
			<path d="M434.138,55.65c-74.2-74.2-194.5-74.2-268.7,0s-74.2,194.5,0,268.7s194.5,74.2,268.7,0     C508.237,250.65,508.237,130.25,434.138,55.65z M397.638,288.25c-54.4,54.4-142.1,54.4-196.1,0c-54.4-54.4-54.4-142.1,0-196.1     c54.4-54.4,142.1-54.4,196.1,0C451.938,146.15,451.938,234.35,397.638,288.25z" fill="#ff0080"/>
			<path d="M132.337,317.45l-54.8,54.8l-37.3-37.3l-40,40.4l37.3,37.3l-35.7,35.7l40,40l35.7-35.7l37.3,37.3l40-40l-37.3-37.3     l54.8-55.1C165.037,351.55,138.238,324.75,132.337,317.45z" fill="#ff0080"/>
		</g>
	</g>
</g>
<g>
</g>
<g>
</g>
<g>
</g>
<g>
</g>
<g>
</g>
<g>
</g>
<g>
</g>
<g>
</g>
<g>
</g>
<g>
</g>
<g>
</g>
<g>
</g>
<g>
</g>
<g>
</g>
<g>
</g>
</svg>
