<?xml version="1.0" encoding="UTF-8" standalone="no"?>
<svg
   xmlns:osb="http://www.openswatchbook.org/uri/2009/osb"
   xmlns:dc="http://purl.org/dc/elements/1.1/"
   xmlns:cc="http://creativecommons.org/ns#"
   xmlns:rdf="http://www.w3.org/1999/02/22-rdf-syntax-ns#"
   xmlns:svg="http://www.w3.org/2000/svg"
   xmlns="http://www.w3.org/2000/svg"
   xmlns:sodipodi="http://sodipodi.sourceforge.net/DTD/sodipodi-0.dtd"
   xmlns:inkscape="http://www.inkscape.org/namespaces/inkscape"
   version="1.0"
   width="215.24026pt"
   height="210.61375pt"
   viewBox="0 0 215.24026 210.61375"
   preserveAspectRatio="xMidYMid meet"
   id="svg2"
   inkscape:version="0.91 r13725"
   sodipodi:docname="logo_m_skew.svg">
  <defs
     id="defs16">
    <linearGradient
       id="linearGradient4437"
       osb:paint="solid">
      <stop
         style="stop-color:#000000;stop-opacity:1;"
         offset="0"
         id="stop4439" />
    </linearGradient>
    <linearGradient
       inkscape:collect="always"
       id="linearGradient4381"
       osb:paint="gradient">
      <stop
         style="stop-color:#000000;stop-opacity:1;"
         offset="0"
         id="stop4383" />
      <stop
         style="stop-color:#000000;stop-opacity:0;"
         offset="1"
         id="stop4385" />
    </linearGradient>
    <linearGradient
       id="linearGradient4275"
       osb:paint="solid">
      <stop
         style="stop-color:#000000;stop-opacity:1;"
         offset="0"
         id="stop4277" />
    </linearGradient>
    <filter
       inkscape:label="Hue to White"
       inkscape:menu="Color"
       inkscape:menu-tooltip="Fades hue progressively to white"
       style="color-interpolation-filters:sRGB"
       id="filter4618">
      <feColorMatrix
         values="1 0 0 0 0 0 1 0 0 0 0 0 1 0 0 0 0 0 1000 -500 "
         id="feColorMatrix4620"
         result="fbSourceGraphic" />
      <feColorMatrix
         result="fbSourceGraphicAlpha"
         in="fbSourceGraphic"
         values="0 0 0 -1 0 0 0 0 -1 0 0 0 0 -1 0 0 0 0 1 0"
         id="feColorMatrix4622" />
      <feColorMatrix
         id="feColorMatrix4624"
         values="1 0 0 0 0 0 1 0 0 0 0 0 1 0 0 0 0 0 1000 -500 "
         in="fbSourceGraphic"
         result="fbSourceGraphic" />
      <feColorMatrix
         result="fbSourceGraphicAlpha"
         in="fbSourceGraphic"
         values="0 0 0 -1 0 0 0 0 -1 0 0 0 0 -1 0 0 0 0 1 0"
         id="feColorMatrix4650" />
      <feColorMatrix
         id="feColorMatrix4652"
         values="1 0 0 0 0 1 0 0 0 0 1 0 0 0 0 0 0 0 0 1 "
         type="matrix"
         result="r"
         in="fbSourceGraphic" />
      <feColorMatrix
         id="feColorMatrix4654"
         values="0 1 0 0 0 0 1 0 0 0 0 1 0 0 0 0 0 0 0 1 "
         type="matrix"
         result="g"
         in="fbSourceGraphic" />
      <feColorMatrix
         id="feColorMatrix4656"
         values="0 0 1 0 0 0 0 1 0 0 0 0 1 0 0 0 0 0 0 1 "
         type="matrix"
         result="b"
         in="fbSourceGraphic" />
      <feBlend
         id="feBlend4658"
         in2="g"
         result="minrg"
         in="r"
         mode="darken" />
      <feBlend
         id="feBlend4660"
         in2="b"
         result="p"
         in="minrg"
         mode="darken" />
      <feBlend
         id="feBlend4662"
         in2="g"
         result="maxrg"
         in="r"
         mode="lighten" />
      <feBlend
         id="feBlend4664"
         in2="b"
         result="q"
         in="maxrg"
         mode="lighten" />
      <feComponentTransfer
         id="feComponentTransfer4666"
         result="q2"
         in="q">
        <feFuncR
           id="feFuncR4668"
           slope="0"
           type="linear" />
      </feComponentTransfer>
      <feBlend
         id="feBlend4670"
         in2="q2"
         result="pq"
         in="p"
         mode="lighten" />
      <feColorMatrix
         id="feColorMatrix4672"
         values="-1 1 0 0 0 -1 1 0 0 0 -1 1 0 0 0 0 0 0 0 1 "
         type="matrix"
         result="qminp"
         in="pq" />
      <feComposite
         id="feComposite4674"
         in2="qminp"
         k3="1"
         operator="arithmetic"
         result="qminpc"
         in="qminp"
         k1="0"
         k2="0"
         k4="0" />
      <feBlend
         id="feBlend4676"
         in2="fbSourceGraphic"
         result="result2"
         mode="screen" />
      <feComposite
         id="feComposite4678"
         in2="fbSourceGraphic"
         operator="in"
         in="result2"
         result="result1" />
    </filter>
  </defs>
  <sodipodi:namedview
     pagecolor="#ffffff"
     bordercolor="#666666"
     borderopacity="1"
     objecttolerance="10"
     gridtolerance="10"
     guidetolerance="10"
     inkscape:pageopacity="0"
     inkscape:pageshadow="2"
     inkscape:window-width="1280"
     inkscape:window-height="961"
     id="namedview14"
     showgrid="false"
     inkscape:zoom="1.1661385"
     inkscape:cx="37.698288"
     inkscape:cy="130.11953"
     inkscape:window-x="-8"
     inkscape:window-y="-8"
     inkscape:window-maximized="1"
     inkscape:current-layer="text4594"
     fit-margin-top="0"
     fit-margin-left="0"
     fit-margin-right="0"
     fit-margin-bottom="0" />
  <metadata
     id="metadata4">
Created by potrace 1.13, written by Peter Selinger 2001-2015
<rdf:RDF>
  <cc:Work
     rdf:about="">
    <dc:format>image/svg+xml</dc:format>
    <dc:type
       rdf:resource="http://purl.org/dc/dcmitype/StillImage" />
    <dc:title></dc:title>
  </cc:Work>
</rdf:RDF>
</metadata>
  <g
     id="g3380"
     transform="translate(4.3130773,-0.05614093)">
    <path
       d="m 53.934393,102.17742 -0.444746,-7.37123 -3.205027,-0.08859 -3.126981,-0.09084 -2.069851,6.84269 c -1.064531,3.75236 -2.137623,7.20482 -2.359776,7.63138 -0.218728,0.54653 1.191238,0.68637 5.639864,0.55938 l 6.00955,-0.17154 -0.443033,-7.31124 z"
       id="path10-9"
       style="fill:#ff8c00;stroke:none"
       inkscape:connector-curvature="0" />
    <path
       d="m 76.489312,103.85466 0.335076,12.3 4.579364,0.3 4.467671,0.3 3.239063,-11.3 c 1.675377,-6.199999 3.350754,-11.899999 3.685829,-12.599999 0.335075,-0.9 -1.675377,-1.2 -8.041809,-1.2 l -8.600269,0 0.335075,12.199999 z"
       id="path10"
       style="fill:#ff8c00;stroke:none"
       inkscape:connector-curvature="0" />
    <path
       d="m 152.2,103.2 0.3,12.3 4.1,0.3 4,0.3 2.9,-11.3 c 1.5,-6.2 3,-11.9 3.3,-12.6 0.3,-0.9 -1.5,-1.2 -7.2,-1.2 l -7.7,0 0.3,12.2 z"
       id="path12"
       style="fill:#ff8c00;stroke:none"
       inkscape:connector-curvature="0" />
  </g>
  <flowRoot
     xml:space="preserve"
     id="flowRoot3347"
     style="font-style:normal;font-weight:normal;font-size:40px;line-height:125%;font-family:sans-serif;letter-spacing:0px;word-spacing:0px;fill:#000000;fill-opacity:1;stroke:none;stroke-width:1px;stroke-linecap:butt;stroke-linejoin:miter;stroke-opacity:1"
     transform="matrix(0.8,0,0,0.8,4.2953559,-0.05360247)"><flowRegion
       id="flowRegion3349"><rect
         id="rect3351"
         width="20.185381"
         height="45.28072"
         x="61.101696"
         y="121.65784" /></flowRegion><flowPara
       id="flowPara3353">A</flowPara></flowRoot>  <ellipse
     style="opacity:1;fill:#ff8c00;fill-opacity:1;fill-rule:nonzero;stroke:none;stroke-width:0.97598702;stroke-linecap:round;stroke-linejoin:round;stroke-miterlimit:4;stroke-dasharray:none;stroke-dashoffset:0;stroke-opacity:1"
     id="path4457"
     cx="108.29536"
     cy="106.3464"
     rx="88.712006"
     ry="73.91201" />
  <ellipse
     transform="matrix(0.32922873,0.9442502,0.82692564,-0.56231129,0,0)"
     cy="69.310028"
     cx="152.79921"
     id="path4461-0-3"
     style="opacity:1;fill:none;fill-opacity:1;fill-rule:nonzero;stroke:#000000;stroke-width:1.3180728;stroke-linecap:round;stroke-linejoin:round;stroke-miterlimit:4;stroke-dasharray:none;stroke-dashoffset:0;stroke-opacity:1"
     rx="81.885994"
     ry="125.2313" />
  <g
     transform="matrix(1.0427044,-6.5655764e-4,6.5655764e-4,1.0427044,-24.553136,26.413699)"
     style="font-style:normal;font-variant:normal;font-weight:normal;font-stretch:normal;font-size:53.07241058px;line-height:125%;font-family:'Red October';-inkscape-font-specification:'Red October';letter-spacing:0px;word-spacing:0px;fill:#ff8c00;fill-opacity:1;stroke:none;stroke-width:6.48000002;stroke-linecap:butt;stroke-linejoin:miter;stroke-miterlimit:4;stroke-dasharray:none;stroke-opacity:1"
     id="text4594">
    <g
       id="g4703">
      <g
         id="g4583"
         transform="matrix(0.86571044,0.50054522,-0.50054522,0.86571044,89.467748,-67.137715)">
        <g
           id="g4575">
          <g
             transform="translate(0,1.309322)"
             id="g5667">
            <ellipse
               style="fill:#fffafa;fill-opacity:1;stroke:none;stroke-width:1.14725685"
               id="path5665"
               cx="102.38371"
               cy="102.34534"
               rx="81.184189"
               ry="62.892048" />
            <path
               inkscape:connector-curvature="0"
               style="fill:#ff8c00;stroke:none"
               id="path8"
               d="m 82.517721,8.6974615 c -36.5,7.8000005 -66.4,37.9000005 -73.8999995,74.5000005 -2.1000001,10.1 -2.1000001,29.499998 0,39.599998 7.5999995,36.9 37.6999995,67 74.5999995,74.6 10.1,2.1 29.499999,2.1 39.599999,0 36.9,-7.6 67,-37.7 74.6,-74.6 0.9,-4.6 1.6,-12.7 1.6,-19.8 0,-7.099998 -0.7,-15.199998 -1.6,-19.799998 -7.6,-36.9 -37.7,-67 -74.6,-74.6000005 -9.8,-2 -30.699999,-2 -40.299999,0.1 z m -11.7,72.3000005 33.199999,0 0,3.7 c 0.1,2.1 -2.1,12.2 -4.699999,22.499998 l -4.8,18.8 -13.2,0 -13.3,0 0,-17.5 c 0,-16.799998 -0.1,-17.499998 -2,-17.499998 -1.9,0 -2,0.7 -2,17.499998 l 0,17.5 -5,0 -5,0 0,-4 0,-4 -6.8,0 -6.8,0 -1,3.7 c -0.9,3.7 -1,3.8 -6.1,4.1 -2.9,0.2 -5.3,-0.1 -5.3,-0.6 0,-0.6 1.1,-4.7 2.4,-9.3 1.3,-4.6 3.2,-11.3 4.1,-14.9 0.9,-3.599998 1.8,-7.299998 2.1,-8.299998 0.4,-1.4 -0.1,-1.7 -3,-1.7 l -3.6,0 0,-5.6 0,-5.7 3.8,0.7 c 2,0.3 18.7,0.6 37,0.6 z m 107.199999,4.2 c 0,3.1 -1.9,12 -4.5,21.699998 -2.5,9.1 -4.5,17.1 -4.5,17.8 0,1 -3,1.3 -13.5,1.3 l -13.5,0 0,-17.5 c 0,-14.899998 -0.2,-17.499998 -1.5,-17.499998 -1.3,0 -1.5,2.6 -1.5,17.499998 l 0,17.5 -5,0 -5,0 0,-7 0,-7 -13,0 c -11.7,0 -13,-0.2 -13,-1.8 0,-0.9 1.4,-7.8 3,-15.199998 1.7,-7.4 3,-13.6 3,-13.7 0,-0.2 2.3,-0.3 5,-0.3 5.8,0 5.6,-0.7 3.1,11.3 -2.1,10.099998 -2.2,9.999998 6,9.499998 l 5.4,-0.3 0.3,-10.199998 0.3,-10.3 20.7,-0.3 c 11.4,-0.1 22.4,-0.3 24.5,-0.5 l 3.7,-0.2 0,5.2 z" />
          </g>
          <g
             id="g4546">
            <rect
               style="opacity:1;fill:#000000;fill-opacity:1;fill-rule:nonzero;stroke:none;stroke-width:7.4000001;stroke-linecap:round;stroke-linejoin:round;stroke-miterlimit:4;stroke-dasharray:none;stroke-dashoffset:0;stroke-opacity:1"
               id="rect4463"
               width="172.45964"
               height="50.759552"
               x="-123.93346"
               y="115.86441"
               transform="matrix(-0.86602542,0.49999998,0.49999998,0.86602542,0,0)" />
            <circle
               style="opacity:1;fill:#000000;fill-opacity:1;fill-rule:nonzero;stroke:none;stroke-width:1;stroke-linecap:round;stroke-linejoin:round;stroke-miterlimit:4;stroke-dasharray:none;stroke-dashoffset:0;stroke-opacity:1"
               id="path4461"
               cx="103.78563"
               cy="104.80001"
               r="78.144287" />
          </g>
        </g>
      </g>
      <path
         inkscape:connector-curvature="0"
         d="m 163.6322,82.12644 6.32308,-29.023975 9.51054,0 -3.73166,19.51344 12.25745,0 0,-19.51344 9.51053,0 0,42.447563 -9.51053,0 0,-13.423588 -24.35941,0 z m -32.80746,13.371759 0,-42.447562 33.92177,0 0,29.023974 -24.41123,0 0,13.423588 -9.51054,0 z m 9.51054,-22.934122 14.9007,0 0,-10.02882 -14.9007,0 0,10.02882 z m -46.827077,22.934122 0,-42.447562 33.921767,0 0,29.023974 -24.41123,0 0,13.423588 -9.510537,0 z m 9.510537,-22.934122 14.9007,0 0,-10.02882 -14.9007,0 0,10.02882 z m -48.718816,22.985951 8.603536,-32.962943 -6.634052,0 0,-9.48462 31.84863,0 0,42.447563 -9.510535,0 0,-7.204165 -12.620246,0 -1.917655,7.204165 -9.769678,0 z m 14.123274,-16.7147 10.184305,0 0,-16.248243 -5.934366,0 -4.249939,16.248243 z"
         style="fill:#ff8c00;fill-opacity:1;stroke:#000000;stroke-width:6.48000002;stroke-linecap:round;stroke-linejoin:miter;stroke-miterlimit:4;stroke-dasharray:none;stroke-opacity:1;filter:url(#filter4618)"
         id="path4615"
         transform="matrix(0.96592583,0.25881905,-0.25881905,0.96592583,23.520313,-30.053864)" />
    </g>
  </g>
</svg>
